HIERARCHY
ROOT Hips
{
	OFFSET 0.00000 0.00000 0.00000
	CHANNELS 6 Xposition Yposition Zposition Zrotation Yrotation Xrotation 
	JOINT LHipJoint
	{
		OFFSET 0 0 0
		CHANNELS 3 Zrotation Yrotation Xrotation
		JOINT LeftHip
		{
			OFFSET 1.66553 -1.82942 0.76350
			CHANNELS 3 Zrotation Yrotation Xrotation
			JOINT LeftKnee
			{
				OFFSET 2.41740 -6.64177 0.00000
				CHANNELS 3 Zrotation Yrotation Xrotation
				JOINT LeftAnkle
				{
					OFFSET 2.71614 -7.46254 0.00000
					CHANNELS 3 Zrotation Yrotation Xrotation
					JOINT LeftToe
					{
						OFFSET 0.08005 -0.21993 1.82495
						CHANNELS 3 Zrotation Yrotation Xrotation
						End Site
						{
							OFFSET 0.00000 -0.00000 0.93441
						}
					}
				}
			}
		}
	}
	JOINT RHipJoint
	{
		OFFSET 0 0 0
		CHANNELS 3 Zrotation Yrotation Xrotation
		JOINT RightHip
		{
			OFFSET -1.63725 -1.82942 0.76350
			CHANNELS 3 Zrotation Yrotation Xrotation
			JOINT RightKnee
			{
				OFFSET -2.40538 -6.60872 0.00000
				CHANNELS 3 Zrotation Yrotation Xrotation
				JOINT RightAnkle
				{
					OFFSET -2.73312 -7.50919 0.00000
					CHANNELS 3 Zrotation Yrotation Xrotation
					JOINT RightToe
					{
						OFFSET -0.15567 -0.42769 1.93504
						CHANNELS 3 Zrotation Yrotation Xrotation
						End Site
						{
							OFFSET -0.00000 -0.00000 1.00100
						}
					}
				}
			}
		}
	}
	JOINT lowerback
	{
		OFFSET 0 0 0
		CHANNELS 3 Zrotation Yrotation Xrotation
		JOINT Chest
		{
			OFFSET 0.00326 2.30118 -0.13017
			CHANNELS 3 Zrotation Yrotation Xrotation
			JOINT Chest2
			{
				OFFSET 0.02887 2.30677 0.00834
				CHANNELS 3 Zrotation Yrotation Xrotation
				JOINT lowerneck
				{
					OFFSET 0 0 0
					CHANNELS 3 Zrotation Yrotation Xrotation
					JOINT Neck
					{
						OFFSET 0.12946 1.68326 0.00713
						CHANNELS 3 Zrotation Yrotation Xrotation
						JOINT Head
						{
							OFFSET -0.24364 1.67243 -0.16079
							CHANNELS 3 Zrotation Yrotation Xrotation
							End Site
							{
								OFFSET -0.09229 1.70819 -0.06383
							}
						}
					}
				}
				JOINT LeftCollar
				{
					OFFSET 0 0 0
					CHANNELS 3 Zrotation Yrotation Xrotation
					JOINT LeftShoulder
					{
						OFFSET 3.28104 0.69567 -0.00556
CHANNELS 3 Zrotation Xrotation Yrotation
						JOINT LeftElbow
						{
OFFSET 0 -5.707060 -0.000000
CHANNELS 3 Zrotation Xrotation Yrotation
							JOINT LeftWrist
							{
OFFSET 0 -3.332430 0.000000
CHANNELS 3 Zrotation Xrotation Yrotation
								JOINT lhand
								{
									OFFSET 0 0 0
CHANNELS 3 Zrotation Xrotation Yrotation
									JOINT LFingers
									{
OFFSET 0 -0.792690 0.000000
CHANNELS 3 Zrotation Xrotation Yrotation
										End Site
										{
OFFSET 0 -0.639090 0.000000
										}
									}
								}
								JOINT LThumb
								{
OFFSET 0 0.000000 0.000000
CHANNELS 3 Zrotation Xrotation Yrotation
									End Site
									{
OFFSET 0 -0.648840 0.648840
									}
								}
							}
						}
					}
				}
				JOINT RightCollar
				{
					OFFSET 0 0 0
					CHANNELS 3 Zrotation Yrotation Xrotation
					JOINT RightShoulder
					{
						OFFSET -3.40955 0.64424 0.14010
CHANNELS 3 Zrotation Xrotation Yrotation
						JOINT RightElbow
						{
OFFSET 0 -5.881760 -0.000000
CHANNELS 3 Zrotation Xrotation Yrotation
							JOINT RightWrist
							{
OFFSET 0 -3.281560 0.000000
CHANNELS 3 Zrotation Xrotation Yrotation
								JOINT rhand
								{
									OFFSET 0 0 0
CHANNELS 3 Zrotation Xrotation Yrotation
									JOINT RFingers
									{
OFFSET 0 -0.863130 0.000000
CHANNELS 3 Zrotation Xrotation Yrotation
										End Site
										{
OFFSET 0 -0.695870 0.000000
										}
									}
								}
								JOINT RThumb
								{
OFFSET 0 0.000000 0.000000
CHANNELS 3 Zrotation Xrotation Yrotation
									End Site
									{
OFFSET 0 -0.706500 0.706500
									}
								}
							}
						}
					}
				}
			}
		}
	}
}
MOTION
Frames: 5
Frame Time: 0.008333333333333333
10.092100 17.218700 -22.216400 -1.378200 -4.079600 3.819300 0.000000 0.000000 0.000000 -3.004300 -2.240400 -10.599500 2.248200 9.364900 26.943600 0.920900 1.181300 -18.594500 4.906000 -13.277200 -40.415100 0.000000 0.000000 0.000000 12.536900 1.945700 -15.467400 -3.561800 -11.553300 34.169400 -1.956500 3.368100 -25.611500 -0.466500 4.380700 -12.150200 2.039900 -2.460500 2.701700 -0.757700 -3.230100 -5.545800 -1.634800 -1.737400 -7.468100 18.332100 9.585100 3.351700 -17.557400 15.959400 18.832600 -7.764000 7.979500 8.133000 -0.000000 -0.000000 0.000000 9.604900 22.337800 -5.980800 15.766800 -25.203500 3.546100 20.728000 -10.490800 -23.300100 0.000000 0.000000 0.000000 -7.125000 0.000000 0.000000 -8.939000 54.482800 2.095300 -0.000000 -0.000000 0.000000 -6.829900 13.305300 13.133500 -14.569200 -23.542600 -3.051800 -11.285800 12.087900 -21.453700 0.000000 0.000000 0.000000 7.125000 0.000000 -0.000000 11.019100 8.466300 9.458000
9.810143 17.235221 -22.227844 -0.858236 -3.569734 4.269099 0.000000 0.000000 0.000000 -2.434578 -2.247359 -11.003643 2.138508 9.148851 26.262033 0.823650 -0.366726 -17.033379 3.802449 -11.892687 -35.353490 0.000000 0.000000 0.000000 12.997206 1.445555 -16.473925 -3.692470 -11.739505 34.816684 -2.032679 3.731887 -26.057426 -0.541001 4.711676 -13.088176 1.622386 -2.729622 2.365435 -0.250952 -3.591857 -6.142069 -0.836622 -1.881243 -7.869297 18.054356 9.829367 3.475928 -17.479616 16.246252 18.247141 -7.643288 8.118166 7.943486 0.000000 0.000000 0.000000 3.888404 22.603010 -1.852822 14.613970 -23.605570 3.069702 19.147945 -16.141637 -24.656081 0.000000 0.000000 0.000000 -7.125000 0.000000 0.000000 -11.156222 55.545987 2.916431 0.000000 0.000000 0.000000 -8.383205 12.157571 13.535385 -14.602290 -23.589192 -3.065070 -11.234714 11.520011 -20.961020 0.000000 0.000000 0.000000 7.125000 0.000000 0.000000 11.042000 8.960695 9.367826
9.690460 17.220900 -22.245960 -0.769798 -2.887309 4.777555 0.000000 0.000000 0.000000 -2.320915 -2.435152 -12.968510 2.513351 9.862038 28.531190 1.316202 -4.420861 -20.684671 3.831043 -11.931341 -35.490494 0.000000 0.000000 0.000000 13.359615 1.884819 -17.327874 -3.892408 -12.015781 35.787970 -2.106220 2.902964 -26.710130 -0.545321 4.729259 -13.138201 2.166727 -2.722852 1.769210 0.069837 -3.538651 -6.475720 -0.827868 -1.881083 -7.895449 18.227977 9.516554 3.644842 -17.476091 15.664206 17.046501 -7.727918 7.877141 7.414934 0.000000 0.000000 0.000000 0.132224 22.654959 -2.825625 15.073422 -24.248176 3.256145 19.075278 -19.962207 -26.847419 0.000000 0.000000 0.000000 -7.125000 0.000000 0.000000 -12.331301 57.725349 3.880500 0.000000 0.000000 0.000000 -10.103115 11.278983 14.379566 -14.870060 -23.964824 -3.172994 -12.002532 10.880266 -20.538708 0.000000 0.000000 0.000000 7.125000 0.000000 0.000000 10.546502 9.302648 8.858220
9.722092 17.135065 -22.274096 -0.950265 -2.291792 4.719177 0.000000 0.000000 0.000000 -3.061849 -2.847481 -13.981056 2.731051 10.246303 29.778170 1.500795 -5.581005 -22.014452 3.596415 -11.602905 -34.341670 0.000000 0.000000 0.000000 13.342449 2.030049 -18.385944 -4.351864 -12.614451 37.941817 -2.239441 3.351384 -27.480250 -0.383225 3.975564 -11.007862 2.379518 -2.712062 1.908427 0.983197 -3.443275 -6.581981 0.012251 -1.814166 -8.043469 17.950499 9.131622 3.718684 -17.774702 15.003538 15.661078 -7.848461 7.551231 6.821249 0.000000 0.000000 0.000000 -2.358661 23.000704 -10.101135 15.919101 -25.410825 3.611223 21.775154 -20.191059 -28.378069 0.000000 0.000000 0.000000 -7.125000 0.000000 0.000000 -10.251854 59.874306 3.745248 0.000000 0.000000 0.000000 -13.120756 10.601379 16.233373 -15.107127 -24.295112 -3.269899 -13.577282 9.683386 -21.759313 0.000000 0.000000 0.000000 7.125000 0.000000 0.000000 9.583385 7.909359 8.292925
9.822293 17.002102 -22.324163 -1.653429 -2.131454 4.102449 0.000000 0.000000 0.000000 -2.393278 -4.769307 -14.293826 3.181086 10.982199 32.220410 1.452244 -4.190873 -21.801117 3.905979 -12.034249 -35.853156 0.000000 0.000000 0.000000 13.598776 2.189421 -19.091450 -4.859532 -13.223683 40.212047 -2.320374 3.232544 -28.017701 -0.432381 4.218642 -11.692691 2.158184 -2.528624 2.298854 1.920571 -3.149785 -5.719340 1.073710 -1.616847 -7.265481 18.147587 8.983676 2.498045 -17.857682 14.376779 13.847757 -7.885913 7.208788 6.363976 0.000000 0.000000 0.000000 -1.629647 21.093442 -18.579181 16.259018 -25.870589 3.758331 24.483621 -18.561600 -30.102473 0.000000 0.000000 0.000000 -7.125000 0.000000 0.000000 -8.174732 62.295614 3.449279 0.000000 0.000000 0.000000 -15.546342 7.496269 16.290342 -14.506004 -23.453403 -3.026607 -10.572138 13.188015 -19.017051 0.000000 0.000000 0.000000 7.125000 0.000000 0.000000 11.446446 10.952521 9.254571
